<svg width="12" height="12" viewBox="0 0 12 12" fill="none" xmlns="http://www.w3.org/2000/svg">
<path d="M6.00431 6.78822L0.973442 11.8191L0.180908 11.0266L5.21178 6.0043L0.180908 0.973435L0.973442 0.180901L6.00431 5.21177L11.0266 0.180901L11.8191 0.973435L6.78823 6.0043L11.8191 11.0266L11.0266 11.8191L6.00431 6.78822Z" fill="#83A0B1"/>
<path d="M11.0266 0.361809L11.6382 0.973439L6.60732 6.00431L11.6296 11.0266L11.0179 11.6382L6.00431 6.60732L0.982053 11.6296L0.361809 11.0266L5.38406 6.00431L0.361809 0.973439L0.973439 0.361809L5.99569 5.38406L11.0266 0.361809ZM11.0266 0L10.8457 0.180905L6.00431 5.02225L1.15434 0.180905L0.973439 0L0.792534 0.180905L0.180905 0.792534L0 0.973439L0.180905 1.15434L5.02225 5.99569L0.180905 10.8457L0 11.0266L0.180905 11.2075L0.792534 11.8191L0.973439 12L1.15434 11.8191L6.00431 6.97775L10.8457 11.8191L11.0266 12L11.2075 11.8191L11.8191 11.2075L12 11.0266L11.8191 10.8457L6.97775 6.00431L11.8191 1.16296L12 0.982053L11.8191 0.801149L11.2075 0.189519L11.0266 0Z" fill="#83A0B1"/>
</svg>
